<svg xmlns="http://www.w3.org/2000/svg" width="57" height="57" viewBox="0 0 57 57">
  <g id="グループ_1717" data-name="グループ 1717" transform="translate(-1456 -3230)">
    <circle id="楕円形_244" data-name="楕円形 244" cx="28.5" cy="28.5" r="28.5" transform="translate(1456 3230)"/>
    <path id="楕円形_244_-_アウトライン" data-name="楕円形 244 - アウトライン" d="M28.5,2A26.508,26.508,0,0,0,18.186,52.918,26.507,26.507,0,0,0,38.814,4.082,26.332,26.332,0,0,0,28.5,2m0-2A28.5,28.5,0,1,1,0,28.5,28.5,28.5,0,0,1,28.5,0Z" transform="translate(1456 3230)" fill="#fff"/>
    <g id="グループ_1716" data-name="グループ 1716" transform="translate(-0.5)">
      <path id="線_381" data-name="線 381" d="M22.586,25.414l-24-24L1.414-1.414l24,24Z" transform="translate(1473.5 3247)" fill="#fff"/>
      <path id="線_382" data-name="線 382" d="M1.414,25.414l-2.828-2.828,24-24,2.828,2.828Z" transform="translate(1473.5 3247)" fill="#fff"/>
    </g>
  </g>
</svg>
