<svg xmlns="http://www.w3.org/2000/svg" width="59.95" height="75.058" viewBox="0 0 59.95 75.058">
  <g id="media-icon" transform="translate(-133.617 -367)">
    <path id="パス_4483" data-name="パス 4483" d="M187.295,398.292v2.229h-5.273V386.427a18.429,18.429,0,0,0-36.859,0V400.52H139.89v-2.229h-5.273V406.7a29.01,29.01,0,0,0,26.008,28.824v5.536h5.931v-5.536A29.011,29.011,0,0,0,192.567,406.7v-8.407Zm-38.176-11.864a14.473,14.473,0,0,1,7.222-12.507v7.152a1.977,1.977,0,1,0,3.954,0V372.5c0-.054-.011-.1-.013-.152a14.017,14.017,0,0,1,6.622,0,1.312,1.312,0,0,0-.016.152v8.569a1.978,1.978,0,1,0,3.957,0v-7.152a14.472,14.472,0,0,1,7.221,12.507v5.526H149.119ZM187.295,406.7a23.7,23.7,0,0,1-47.4,0v-.9h5.273v.9a18.429,18.429,0,0,0,36.859,0v-.9h5.273Z" fill="#756659"/>
    <path id="パス_4483_-_アウトライン" data-name="パス 4483 - アウトライン" d="M163.592,367a19.413,19.413,0,0,1,19.429,19.427V399.52h3.273v-2.229h7.273V406.7a30.014,30.014,0,0,1-26.011,29.713v5.647h-7.931v-5.647A30.013,30.013,0,0,1,133.617,406.7v-9.407h7.273v2.229h3.273V386.427A19.413,19.413,0,0,1,163.592,367Zm24.7,34.52h-7.273V386.427a17.429,17.429,0,0,0-34.859,0V401.52H138.89v-2.229h-3.273V406.7a28.01,28.01,0,0,0,25.11,27.829l.9.092v5.439h3.931v-5.439l.9-.092A28.011,28.011,0,0,0,191.567,406.7v-7.406h-3.273Zm-24.7-30.565a15.479,15.479,0,0,1,3.54.423l.863.2-.1.881c0,.026-.006.051-.01.076v8.534a.978.978,0,1,0,1.957,0v-8.892l1.5.876a15.636,15.636,0,0,1,5.585,5.549,15.4,15.4,0,0,1,2.133,7.822v6.526H148.119v-6.526a15.4,15.4,0,0,1,2.134-7.822,15.637,15.637,0,0,1,5.585-5.549l1.5-.876v8.892a.977.977,0,1,0,1.954,0v-8.538c0-.033-.01-.08-.012-.138l-.037-.827.806-.19A15.471,15.471,0,0,1,163.592,370.955Zm2.3,2.208a12.8,12.8,0,0,0-4.593,0v7.909a2.977,2.977,0,1,1-5.954,0V375.8a13.621,13.621,0,0,0-3.366,3.822,13.394,13.394,0,0,0-1.856,6.805v4.526h26.946v-4.526a13.4,13.4,0,0,0-1.856-6.805,13.619,13.619,0,0,0-3.366-3.822v5.272a2.978,2.978,0,1,1-5.957,0Zm-27,31.633h7.273v1.9a17.429,17.429,0,0,0,34.859,0v-1.9h7.273v1.9a24.7,24.7,0,1,1-49.4,0Zm5.274,2H140.89a22.7,22.7,0,0,0,45.4,0h-3.273a19.429,19.429,0,0,1-38.858,0Z" fill="#fff8ef"/>
  </g>
</svg>
