<?xml version="1.0" encoding="utf-8"?>
<!-- Generator: Adobe Illustrator 26.3.1, SVG Export Plug-In . SVG Version: 6.00 Build 0)  -->
<svg version="1.1" id="レイヤー_1" xmlns="http://www.w3.org/2000/svg" xmlns:xlink="http://www.w3.org/1999/xlink" x="0px"
	 y="0px" viewBox="0 0 81 75.1" style="enable-background:new 0 0 81 75.1;" xml:space="preserve">
<style type="text/css">
	.st0{fill:#756659;}
</style>
<path class="st0" d="M40.3,72.9c-1.7,0-3.3-0.7-4.5-1.9c-1.2-1.2-1.9-2.8-1.9-4.5c0-0.2,0-0.4,0-0.6c-0.2,0-0.4,0-0.6,0
	c-1.7,0-3.3-0.7-4.5-1.9c-1.3-1.3-2-3.2-1.9-5.1c-0.2,0-0.4,0-0.6,0c-1.7,0-3.3-0.7-4.5-1.9s-1.9-2.8-1.9-4.5c0-0.2,0-0.4,0-0.6
	c-0.2,0-0.4,0-0.6,0c-1.7,0-3.3-0.7-4.5-1.9c-1.1-1-1.7-2.5-1.8-4l-6.5-6.5c-8.2-8.2-8.2-21.5,0-29.7c4-4,9.2-6.1,14.8-6.1
	c4.7,0,9.3,1.6,13,4.5c0.2,0.1,0.4,0.2,0.5,0.3l1.5,1.5c0.3,0.3,0.3,0.3,0.3,0.3s0,0,3.8,3.8l4.3-4.3c4-4,9.2-6.1,14.8-6.1
	s10.9,2.2,14.8,6.1c4,4,6.1,9.2,6.1,14.8s-2.2,10.9-6.1,14.8L69,44.9c0,0.2,0,0.3,0,0.5c0,1.7-0.7,3.3-1.9,4.5
	c-1.2,1.2-2.8,1.9-4.5,1.9c-0.2,0-0.4,0-0.6,0c0,0.3,0,0.5,0,0.8c0,1.8-0.7,3.5-1.9,4.7s-2.9,1.9-4.7,1.9c-0.4,0-0.8,0-1.3-0.1
	c0,1.7-0.7,3.3-1.9,4.5L44.8,71C43.6,72.3,42,72.9,40.3,72.9z M47.9,55.5c-0.9,0-1.8,0.4-2.4,1l-7.6,7.6c-0.6,0.6-1,1.5-1,2.4
	s0.4,1.8,1,2.4s1.5,1,2.4,1s1.8-0.4,2.4-1l7.6-7.6c0.6-0.6,1-1.5,1-2.4c0-0.7-0.2-1.3-0.6-1.9l-0.9-0.9
	C49.2,55.7,48.6,55.5,47.9,55.5z M40.9,48.5c-0.9,0-1.8,0.4-2.4,1l-7.6,7.6c-1.3,1.3-1.3,3.5,0,4.8c0.6,0.6,1.5,1,2.4,1
	c0.9,0,1.8-0.4,2.4-1l7.6-7.6c0.6-0.6,1-1.5,1-2.4c0-0.7-0.2-1.3-0.6-1.9l-0.9-0.9C42.3,48.7,41.6,48.5,40.9,48.5z M53,55.1
	c0.6,0.6,1.6,1,2.5,1c1,0,1.9-0.4,2.6-1c0.6-0.6,1-1.6,1-2.6s-0.4-1.9-1-2.6l-7.6-7.6c-0.1-0.1-0.2-0.3-0.3-0.4
	c0-0.1-0.1-0.1-0.1-0.1c-0.2-0.3-0.3-0.7-0.3-1.1c0-0.4,0.2-0.7,0.5-1c0.3-0.2,0.6-0.3,0.9-0.3c0.4,0,0.8,0.2,1.1,0.5l0,0
	c0.1,0.1,0.2,0.1,0.3,0.2l7.6,7.6c0.1,0.1,0.2,0.2,0.3,0.4c0.6,0.4,1.3,0.7,2.1,0.7c0.9,0,1.8-0.4,2.5-1c0.7-0.7,1-1.5,1-2.5
	c0-0.9-0.4-1.8-1-2.5c-6.4-6.4-14.4-14.3-17-16.9l-5.9,5.9c-1.3,1.3-3,2-4.9,2c-1.8,0-3.6-0.7-4.9-2c-1.3-1.3-2-3-2-4.9
	c0-1.8,0.7-3.6,2-4.9l5.5-5.5c0.1-0.1,0.1-0.2,0.2-0.2l0.2-0.2c-3.6-3.6-4.3-4.3-4.3-4.3l0,0c-3.4-3.4-7.9-5.3-12.7-5.3
	S12,8.4,8.6,11.8c-7,7-7,18.5,0,25.5l5.2,5.2c0.3-0.5,0.7-1,1.1-1.5l7.6-7.6c1.2-1.2,2.8-1.9,4.5-1.9s3.3,0.7,4.5,1.9
	s1.9,2.8,1.9,4.5c0,0.2,0,0.4,0,0.6c0.2,0,0.4,0,0.6,0c1.7,0,3.3,0.7,4.5,1.9s1.9,2.8,1.9,4.5c0,0.2,0,0.4,0,0.6c0.2,0,0.4,0,0.6,0
	c1.2,0,2.3,0.3,3.3,0.9l0.5,0.4c0.2,0.2,0.5,0.4,0.7,0.6c0.2,0.2,0.4,0.5,0.6,0.7l5.7,5.7c0.2,0.2,0.5,0.4,0.7,0.6
	C52.6,54.6,52.8,54.8,53,55.1z M34,41.6c-0.9,0-1.8,0.4-2.4,1L24,50.2c-0.6,0.6-1,1.5-1,2.4s0.4,1.8,1,2.4c0.6,0.6,1.5,1,2.4,1
	s1.8-0.4,2.4-1l7.6-7.6c0.6-0.6,1-1.5,1-2.4s-0.4-1.8-1-2.4C35.7,41.9,34.9,41.6,34,41.6z M27,34.6c-0.9,0-1.8,0.4-2.4,1L17,43.2
	c-0.6,0.6-1,1.5-1,2.4s0.4,1.8,1,2.4c0.6,0.6,1.5,1,2.4,1s1.8-0.4,2.4-1l7.6-7.6c0.6-0.6,1-1.5,1-2.4s-0.4-1.8-1-2.4
	S27.9,34.6,27,34.6z M50.1,24c2.3,2.2,8,7.9,17.1,16.9c0.3,0.3,0.5,0.6,0.8,0.9l4.4-4.4c3.4-3.4,5.3-7.9,5.3-12.7s-1.9-9.3-5.3-12.7
	c-3.4-3.5-8-5.4-12.8-5.4s-9.3,1.9-12.7,5.3L34.5,24.2C33.7,25,33.3,26,33.3,27c0,1.1,0.4,2.1,1.2,2.8c0.8,0.8,1.8,1.2,2.8,1.2
	c1.1,0,2.1-0.4,2.8-1.2l9.6-9.6c0.3-0.3,0.6-0.4,1-0.4s0.7,0.1,1,0.4c0.6,0.6,0.6,1.5,0,2L50.1,24z"/>
</svg>
