<svg xmlns="http://www.w3.org/2000/svg" width="80.971" height="75.058" viewBox="0 0 80.971 75.058">
  <g id="property-icon" transform="translate(-1213 -3770.53)">
    <g id="グループ_1153" data-name="グループ 1153" transform="translate(1214 3771.53)">
      <path id="パス_4607" data-name="パス 4607" d="M128,370.4v73.058h78.971V370.4Zm49.223,4.6H187.5v14.442a5.137,5.137,0,0,1-10.274,0Zm-14.875,0h10.275v14.442a5.137,5.137,0,0,1-10.275,0Zm-14.873,0h10.273v14.442a5.136,5.136,0,0,1-10.273,0ZM132.6,375h10.274v14.442a5.137,5.137,0,0,1-10.274,0Zm69.771,63.857h-22.09V423.972h-25.59v14.881H132.6V397.7a9.7,9.7,0,0,0,12.575-1.983,9.722,9.722,0,0,0,14.873,0,9.724,9.724,0,0,0,14.875,0,9.724,9.724,0,0,0,14.874,0,9.7,9.7,0,0,0,12.574,1.982Zm0-49.415a5.137,5.137,0,0,1-10.274,0V375h10.274Z" transform="translate(-128 -370.396)" fill="#756659"/>
      <path id="パス_4607_-_アウトライン" data-name="パス 4607 - アウトライン" d="M127,369.4h80.971v75.058H127Zm78.971,2H129v71.058h76.971ZM131.6,374h12.274v15.442a6.139,6.139,0,0,1-6.137,6.136h0a6.14,6.14,0,0,1-6.135-6.135Zm10.274,2H133.6v13.442a4.137,4.137,0,0,0,8.274,0Zm4.6-2h12.273v15.442a6.137,6.137,0,0,1-6.137,6.136h0a6.139,6.139,0,0,1-6.135-6.135Zm10.273,2h-8.273v13.442a4.136,4.136,0,1,0,8.273,0Zm4.6-2h12.275v15.442a6.14,6.14,0,0,1-6.135,6.136h0a6.14,6.14,0,0,1-6.138-6.135Zm10.275,2h-8.275v13.442a4.137,4.137,0,0,0,8.275,0Zm4.6-2H188.5v15.442a6.139,6.139,0,0,1-6.137,6.136h0a6.139,6.139,0,0,1-6.136-6.135Zm10.274,2h-8.274v13.442a4.137,4.137,0,0,0,8.274,0Zm4.6-2h12.274v15.442a6.14,6.14,0,0,1-6.135,6.136h0a6.138,6.138,0,0,1-6.137-6.135Zm10.274,2H193.1v13.442a4.137,4.137,0,0,0,8.274,0Zm-56.2,18.169.764.9a8.722,8.722,0,0,0,13.345,0l.764-.9.764.9a8.724,8.724,0,0,0,13.347,0l.764-.9.764.9a8.724,8.724,0,0,0,13.347,0l.764-.9.764.9a8.7,8.7,0,0,0,11.281,1.779l1.529-.954v43.958h-24.09V424.972h-23.59v14.881H131.6V395.9l1.529.954a8.7,8.7,0,0,0,11.282-1.78Zm7.435,6.009h0a10.713,10.713,0,0,1-7.435-3,10.7,10.7,0,0,1-11.575,2.163v38.515h20.091V422.972h27.59v14.881h20.09V399.338a10.7,10.7,0,0,1-11.574-2.163,10.72,10.72,0,0,1-14.874,0,10.721,10.721,0,0,1-14.874,0A10.708,10.708,0,0,1,152.611,400.175Z" transform="translate(-128 -370.396)" fill="#fff8ef"/>
      <rect id="長方形_829" data-name="長方形 829" width="10.749" height="12.596" transform="translate(15.772 32.867)" fill="#756659"/>
      <path id="長方形_829_-_アウトライン" data-name="長方形 829 - アウトライン" d="M-1-1H11.749V13.6H-1ZM9.749,1H1V11.6H9.749Z" transform="translate(15.772 32.867)" fill="#fff8ef"/>
      <rect id="長方形_830" data-name="長方形 830" width="10.749" height="12.596" transform="translate(52.45 32.867)" fill="#756659"/>
      <path id="長方形_830_-_アウトライン" data-name="長方形 830 - アウトライン" d="M-1-1H11.749V13.6H-1ZM9.749,1H1V11.6H9.749Z" transform="translate(52.45 32.867)" fill="#fff8ef"/>
      <rect id="長方形_831" data-name="長方形 831" width="10.75" height="12.596" transform="translate(34.11 32.867)" fill="#756659"/>
      <path id="長方形_831_-_アウトライン" data-name="長方形 831 - アウトライン" d="M-1-1H11.75V13.6H-1ZM9.75,1H1V11.6H9.75Z" transform="translate(34.11 32.867)" fill="#fff8ef"/>
    </g>
  </g>
</svg>
