<svg xmlns="http://www.w3.org/2000/svg" width="198.186" height="59.999" viewBox="0 0 198.186 59.999">
  <g id="mocha-logo_footer" transform="translate(-3491.209 -20)">
    <path id="パス_62" data-name="パス 62" d="M3531.656,22.1c.14.086.207.2.11.363l-4.46,7.723a.852.852,0,0,0,.732,1.27.594.594,0,0,0,.094,0l6.9-.882a.181.181,0,0,1,.176.14l.193,1a.18.18,0,0,1-.141.215l-9.915,2.314a.817.817,0,0,0-.534.409l-4.439,7.764a.879.879,0,0,0-.11.468l.2,2.381a.852.852,0,0,0,.795.8,1.17,1.17,0,0,0,.343-.06l.263-.1,4.342-1.631.026-.008a.8.8,0,0,0,.476-.3l3.519-4.829c.21-.266.339-.381.6-.265l.431.222c.2.1.18.262.086.447l-1.268,2.48a.851.851,0,0,0,.1.9.87.87,0,0,0,.666.321.849.849,0,0,0,.166-.017l.032-.01L3540.6,39.4l.046-.006a.19.19,0,0,1,.18.13l.355.883a.19.19,0,0,1-.129.244l-2.334,1.195-.017.01c-.29.192-.524.277-.614.512a1.1,1.1,0,0,0,.028.7l.739,2.474a.148.148,0,0,1-.083.183l-.637.3a.135.135,0,0,1-.056.011.146.146,0,0,1-.121-.063l-1.6-2.477a.861.861,0,0,0-.685-.332.828.828,0,0,0-.226.03l-.021.007-14.077,5.681a.847.847,0,0,0-.6.863l1.179,17.883a.88.88,0,0,0,.577.738l.026.011a2.09,2.09,0,0,0,1.062-.013l3.619-.845.025-.008a.937.937,0,0,0,.368-1.451,5.9,5.9,0,0,1-.8-1.5,7.749,7.749,0,0,1,.224-3.708,3.389,3.389,0,0,0-.189-1.724,3.827,3.827,0,0,1-.178-2.321V56.8a1.969,1.969,0,0,0,.1-1.035,4.043,4.043,0,0,1-.106-1.712,3.486,3.486,0,0,0,.023-1.158c-.023-.212-.111-1.817.367-2.2a.341.341,0,0,1,.238-.1c.312-.021,1.129,1.351,1.241,1.587a.2.2,0,0,0,.2.072,2.04,2.04,0,0,1,.369-.025,1.7,1.7,0,0,1,.507.067.159.159,0,0,0,.209-.08,2.891,2.891,0,0,1,1.057-1.33.39.39,0,0,1,.208-.083c.579.018.463,1.762.213,2.88V53.7a19.117,19.117,0,0,1-.1,1.928c-.1.6.425,1.016.661,1.3a8.005,8.005,0,0,1,1.866,3.6,13.24,13.24,0,0,1-.33,3.146.792.792,0,0,0,.537.846,1.8,1.8,0,0,1,.851.827.639.639,0,0,0,.718.262l3.726-.72.085-.015a.129.129,0,0,1,.127.069l.345,1.079c.036.065.069.182-.032.218l-3.874,1.037s-.627.151-.661.6a.449.449,0,0,0,.31.484l.422.178a.243.243,0,0,1,.157.339l-.317.748c-.073.149-.218.191-.53.119l-2.113-.481a6.475,6.475,0,0,0-1.346-.158,3.289,3.289,0,0,0-.672.062l-8.366,1.875a.663.663,0,0,0-.551.694l.373,6.235a.181.181,0,0,1-.181.191l-9.137-.01a.181.181,0,0,1-.181-.192l.535-8.694a.837.837,0,0,0-.334-.731l-.02-.014-7.77-4.63a.183.183,0,0,1-.043-.262l.622-1.259a.182.182,0,0,1,.145-.072.194.194,0,0,1,.084.02l6.5,3.064a.851.851,0,0,0,.355.078.83.83,0,0,0,.435-.122.877.877,0,0,0,.417-.68l.441-7.8a.853.853,0,0,0-.468-.819l-4.67-2.264a.863.863,0,0,0-.878.073l-6.976,4.115a.174.174,0,0,1-.114.042.178.178,0,0,1-.117-.045l-.762-.988a.177.177,0,0,1,0-.261l5.092-3.527.032-.027a.857.857,0,0,0-.249-1.345l-12.34-6.481a.219.219,0,0,1-.1-.311l.35-.653a.218.218,0,0,1,.189-.108.225.225,0,0,1,.094.021l3.561,1.755a.876.876,0,0,0,.878-.139.851.851,0,0,0,.285-.834l-.891-3.393a.23.23,0,0,1,.165-.282l.755-.242a.242.242,0,0,1,.059-.007.232.232,0,0,1,.211.137l2.591,6.231a.887.887,0,0,0,.438.41l11.974,5.047a.853.853,0,0,0,1.175-.739l.442-6.354a.832.832,0,0,0-.322-.724L3494.39,29.44a.2.2,0,0,1-.025-.294l.761-.986a.2.2,0,0,1,.263-.025l3.677,2.668a.825.825,0,0,0,.471.145.858.858,0,0,0,.729-.408l3.441-5.6a.182.182,0,0,1,.158-.092.2.2,0,0,1,.064.011l.886.533a.181.181,0,0,1,.1.238l-2.757,6.231a.854.854,0,0,0,.329,1.009l11.321,7.318a.864.864,0,0,0,.481.145.846.846,0,0,0,.777-1.176l-4.357-11.526a.234.234,0,0,1,.135-.306l1.087-.462a.228.228,0,0,1,.081-.014.234.234,0,0,1,.206.122l5.739,10.388a.852.852,0,0,0,.7.431h.041a.852.852,0,0,0,.705-.381l6.262-8.717a.855.855,0,0,0-.109-1.09l-4.141-4.186a.223.223,0,0,1-.01-.326l.52-.513a.225.225,0,0,1,.157-.064.219.219,0,0,1,.118.034l4.409,3.278a.837.837,0,0,0,.447.128.852.852,0,0,0,.708-.377l2.949-3.708a.306.306,0,0,1,.428-.143m-.319-1.654V20h.116a1.77,1.77,0,0,0-1.483.857l-2.611,3.168c-.015.024-.045.042-.069.027l-3.725-2.846a1.812,1.812,0,0,0-2.241.243l-.52.513a1.813,1.813,0,0,0,.077,2.651l3.572,3.686a.05.05,0,0,1,.007.066l-5.124,7.132a.05.05,0,0,1-.043.021.049.049,0,0,1-.04-.025l-5.13-9.284a1.82,1.82,0,0,0-2.212-.84l-1.077.459-.032.011a1.822,1.822,0,0,0-1.064,2.361l3.542,9.358a.049.049,0,0,1-.072.059l-8.784-5.727a.049.049,0,0,1-.02-.061l2.493-5.591a1.771,1.771,0,0,0-1.013-2.331l-.885-.531a1.751,1.751,0,0,0-.624-.114,1.775,1.775,0,0,0-1.542.9l-2.992,4.8a.05.05,0,0,1-.072.016l-2.938-2.131a1.773,1.773,0,0,0-1.05-.341,1.794,1.794,0,0,0-1.306.567l-.761.985a1.79,1.79,0,0,0,.217,2.641l20.1,15.442.019.042-.337,4.846a.048.048,0,0,1-.068.042l-10.674-4.5-.026-.025-2.45-5.914a1.822,1.822,0,0,0-1.663-1.081,1.848,1.848,0,0,0-.462.059l-.755.242a1.819,1.819,0,0,0-1.3,2.222l.445,1.7a.049.049,0,0,1-.069.057l-1.97-.97-.022-.011a1.821,1.821,0,0,0-.774-.174,1.709,1.709,0,0,0-1.556.74l-.434.716a1.9,1.9,0,0,0-.089,1.54,1.812,1.812,0,0,0,.965,1.1l11.078,5.886a.049.049,0,0,1,.007.085l-3.858,2.666a1.636,1.636,0,0,0-.184.149,1.777,1.777,0,0,0-.551,1.313,2.232,2.232,0,0,0,.559,1.362l.8.919a1.766,1.766,0,0,0,2.168.134l6.612-3.889h.047l3.8,1.837a.051.051,0,0,1,.028.048l-.345,6.183a.049.049,0,0,1-.068.043l-5.483-2.645a1.8,1.8,0,0,0-.719-.152,1.779,1.779,0,0,0-1.506.839c-.023.039-.044.079-.064.12l-.59,1.193a1.773,1.773,0,0,0,.545,2.346l.077.049,7.294,4.347.025.045-.513,8.391c-.031.44-.156.909.243,1.323a1.6,1.6,0,0,0,1.341.5l9.521.136h0a1.814,1.814,0,0,0,1.586-1.863l-.293-5.516a.209.209,0,0,1,.159-.215l7.416-1.675a1.6,1.6,0,0,1,.337-.033,4.834,4.834,0,0,1,.988.114l2.372.583a1.749,1.749,0,0,0,2.033-1.013l.414-.976a1.76,1.76,0,0,0,.123-.911.049.049,0,0,1,.036-.054l2.338-.657a2.091,2.091,0,0,0,.617-.285,1.727,1.727,0,0,0,.684-1.22,11.482,11.482,0,0,0-.593-2.145,1.511,1.511,0,0,0-.086-.14,1.73,1.73,0,0,0-1.964-.637h-.007l-2.988.546a.166.166,0,0,1-.148-.047,3.1,3.1,0,0,0-.49-.392.18.18,0,0,1-.082-.18c.027-.152.057-.3.088-.457a7.492,7.492,0,0,0,.171-2.472,9.023,9.023,0,0,0-2.21-4.437s-.154-.175-.215-.241l-.067-.072-.012-.037a7.8,7.8,0,0,0-.069-1.463c-.009-.073-.022-.169-.022-.224h0c0-.229.048-.546.084-.853.161-1.381.188-2.463-.428-3.314a1.488,1.488,0,0,0-1.2-.657,1.525,1.525,0,0,0-1.013.459,11.366,11.366,0,0,0-.8.9.045.045,0,0,1-.036.019.044.044,0,0,1-.036-.019,2.813,2.813,0,0,0-2.051-1.442,1.8,1.8,0,0,0-1.254.533c-.929.734-.95,2.916-.87,3.509v.042l.006.054a1.821,1.821,0,0,1-.012.626,5.629,5.629,0,0,0,.108,2.338v.017a1.15,1.15,0,0,1-.034.134,1.18,1.18,0,0,0-.044.137,4.65,4.65,0,0,0-.057,2.6c.14.548.413,1.311.425,1.4V60.4a9.767,9.767,0,0,0-.214,4.608,5.063,5.063,0,0,0,.531,1.146.049.049,0,0,1-.032.073l-2.236.5a.05.05,0,0,1-.04-.009.049.049,0,0,1-.02-.036l-1.1-16.324a.254.254,0,0,1,.163-.256l12.752-5.165a.159.159,0,0,1,.186.056l1.175,1.874a1.735,1.735,0,0,0,1.421.738,2.273,2.273,0,0,0,.747-.215l.554-.215a1.743,1.743,0,0,0,1-2.115l-.583-1.952a.048.048,0,0,1,.025-.058l1.894-.97a1.779,1.779,0,0,0,.976-2.2.867.867,0,0,0-.038-.1l-.344-.858a1.781,1.781,0,0,0-1.658-1.132,1.82,1.82,0,0,0-.429.052,1.658,1.658,0,0,0-.206.067L3532.52,40.9a.049.049,0,0,1-.062-.068l.38-.743a1.778,1.778,0,0,0-.809-2.411l-.67-.324a1.778,1.778,0,0,0-2.214.555l-3.557,4.883-.022.016-3.5,1.332A.05.05,0,0,1,3522,44.1l-.09-1.156.007-.028,4.1-7.168.033-.024L3535.1,33.6c.775-.237,1.281-.3,1.655-.72a1.174,1.174,0,0,0,.28-1.093l-.359-1.826a1.383,1.383,0,0,0-1.644-.971,1.8,1.8,0,0,0-.276.022l-5.181.613a.049.049,0,0,1-.051-.073l3.666-6.373a1.737,1.737,0,0,0-.753-2.45l-.809-.491a2.179,2.179,0,0,0-.795-.159Z" fill="#fff"/>
    <path id="パス_63" data-name="パス 63" d="M3577.561,49.98V72.132h-3V55.506l-7.326,11.778-7.326-11.778V72.132h-2.968V49.98h2.949l7.345,11.81,7.346-11.81Z" fill="#fff"/>
    <path id="パス_64" data-name="パス 64" d="M3596.624,49.973a10.724,10.724,0,0,1,4.3.873,11.082,11.082,0,1,1-12.148,18.032,11.382,11.382,0,0,1-2.363-3.523,11.051,11.051,0,0,1,0-8.61,11.387,11.387,0,0,1,2.363-3.523,11.073,11.073,0,0,1,3.508-2.378,10.788,10.788,0,0,1,4.34-.871Zm0,19.254a7.816,7.816,0,0,0,3.145-.635,8.089,8.089,0,0,0,2.555-1.743,8.269,8.269,0,0,0,1.727-2.6,8,8,0,0,0,.635-3.175,7.9,7.9,0,0,0-.635-3.16,8.236,8.236,0,0,0-4.282-4.341,7.661,7.661,0,0,0-3.145-.65,7.756,7.756,0,0,0-3.16.65,8.214,8.214,0,0,0-2.57,1.757,8.33,8.33,0,0,0-1.728,2.584,7.918,7.918,0,0,0-.635,3.16,8.022,8.022,0,0,0,.635,3.175,8.27,8.27,0,0,0,1.728,2.6,8.03,8.03,0,0,0,2.57,1.743A7.913,7.913,0,0,0,3596.624,69.227Z" fill="#fff"/>
    <path id="パス_65" data-name="パス 65" d="M3625.766,69.223a7.453,7.453,0,0,0,3.859-1.016,9.793,9.793,0,0,0,2.944-2.735l2.47,1.6a10.637,10.637,0,0,1-1.716,2.077,10.859,10.859,0,0,1-2.2,1.6,11.408,11.408,0,0,1-2.559,1.023,11.028,11.028,0,0,1-7.1-.512,11.08,11.08,0,1,1,9.664-19.91,10.969,10.969,0,0,1,3.912,3.65l-2.522,1.666a8.2,8.2,0,0,0-2.866-2.787,7.23,7.23,0,0,0-3.8-.99,8.469,8.469,0,0,0-3.308.678,7.8,7.8,0,0,0-2.5,1.745,7.538,7.538,0,0,0-1.719,2.5,8.2,8.2,0,0,0-.677,3.239,8.292,8.292,0,0,0,.7,3.248,7.926,7.926,0,0,0,1.746,2.578,8.137,8.137,0,0,0,5.674,2.345Z" fill="#fff"/>
    <path id="パス_66" data-name="パス 66" d="M3660.372,50.039V72.191l-2.968-.059V62.569h-10.926v9.562l-2.968.059V50.039l2.968-.059v9.684H3657.4V49.98Z" fill="#fff"/>
    <path id="パス_67" data-name="パス 67" d="M3680.059,49.98l9.336,22.152h-3.126l-2.693-6.37h-9.884l-2.664,6.37h-3.158l9.336-22.152Zm-5.135,12.877h7.42l-3.694-8.779Z" fill="#fff"/>
    <path id="パス_68" data-name="パス 68" d="M3581.935,34.069h2.689v7.448h1.655V34.069h2.9V32.621h-7.241Z" fill="#fff"/>
    <path id="パス_69" data-name="パス 69" d="M3601.61,34.366a2.908,2.908,0,0,1,3.063.7,2.56,2.56,0,0,1,.374.465l1.211-1.13-.5-.49a4.542,4.542,0,1,0,.024,6.443l.427-.486-1.159-1.177s-.028.108-.487.567a2.872,2.872,0,0,1-2,.778,2.92,2.92,0,0,1-.954-5.671Z" fill="#fff"/>
    <path id="パス_70" data-name="パス 70" d="M3560.528,34.366a2.908,2.908,0,0,1,3.063.7,2.574,2.574,0,0,1,.373.465l1.211-1.13-.5-.49a4.542,4.542,0,1,0,.024,6.443l.427-.486-1.158-1.177s-.029.108-.488.567a2.872,2.872,0,0,1-2,.778,2.921,2.921,0,0,1-.954-5.671Z" fill="#fff"/>
    <path id="パス_71" data-name="パス 71" d="M3573.251,32.621l-4.146,8.9h1.694l1.131-2.276h3.757l1.151,2.276h1.691l-4.181-8.9Zm1.723,5.172h-2.334l1.167-2.507Z" fill="#fff"/>
    <path id="パス_72" data-name="パス 72" d="M3614.084,32.621l-4.146,8.9h1.694l1.131-2.276h3.756l1.152,2.276h1.69l-4.181-8.9Zm1.723,5.172h-2.335l1.168-2.507Z" fill="#fff"/>
    <path id="パス_73" data-name="パス 73" d="M3623.314,41.517h1.448V37.793h4.759V36.552h-4.759v-2.69h4.759V32.621h-6.207Z" fill="#fff"/>
    <path id="パス_74" data-name="パス 74" d="M3639.866,33.862V32.621h-5.586v8.9h5.586V40.069h-4.345V37.793h4.138V36.552h-4.138v-2.69Z" fill="#fff"/>
  </g>
</svg>
